:SAMPLES-PER-SECOND 30
:FULLY-SPECIFIED
:DEGREES
748
root  -63.3167 39.1237 7.91391 -166.134 -72.0314 159.62
RightUpLeg  -15.2113 -8.81707 -5.49263
RightLeg  -1.31617 9.80493 1.79457
RightFoot  1.51884 -2.49717 21.8635
RightToes  -9.31324e-010 0 -3.6325e-017
Spine  8.631 -0.606527 -7.46442
Spine1  4.24612 -1.65206 3.14357
HEad  -4.71494 -23.3166 -5.05333
LeftShoulder1  -0.303254 4.3078 -31.5814
LeftArm  -2.85191 7.71571 -36.5264
LeftForeArm  24.526 -29.6937 -5.09859
LeftHand  -0.0294544 4.97099 0.934765
RightShoulder  -0.903418 -5.97439 29.9775
RightArm  23.2854 -3.31149 46.8089
RightForeArm  8.53667 17.4488 5.63304
RightHand  -0.0884916 4.8464 -1.29836
LeftUpLeg  -0.83478 4.22216 -6.88328
LeftLeg  24.2768 -0.615197 0.0420242
LeftFoot  -16.3702 0.324545 5.13613
LeftToes  8.61288e-010 -5.99147e-011 2.1039e-011
749
root  -62.4837 39.244 8.00288 -167.871 -71.7242 161.867
RightUpLeg  -16.0252 -9.05974 -5.41894
RightLeg  0.485063 3.88963 2.36815
RightFoot  0.537815 -1.87779 17.9567
RightToes  -9.31324e-010 0 -3.6325e-017
Spine  8.4414 -0.484347 -6.71961
Spine1  4.32713 -1.41679 2.88487
HEad  -6.45514 -22.8822 -4.73834
LeftShoulder1  -0.297052 4.28812 -31.742
LeftArm  -3.96879 6.90179 -35.9441
LeftForeArm  25.152 -30.575 -5.27083
LeftHand  -0.0281915 5.39301 0.848046
RightShoulder  -0.890739 -5.94496 29.8939
RightArm  21.6642 -4.71052 46.7557
RightForeArm  11.9697 15.1995 6.3395
RightHand  -0.0541624 4.5787 -0.920292
LeftUpLeg  -2.67047 4.78969 -5.90181
LeftLeg  24.1594 -1.19206 -0.239525
LeftFoot  -14.8682 0.240964 4.92254
LeftToes  8.61288e-010 -5.99147e-011 2.1039e-011
750
root  -61.7318 39.4441 8.08593 -171.575 -70.9411 165.136
RightUpLeg  -15.813 -10.384 -5.09942
RightLeg  5.02627 -0.762399 2.52091
RightFoot  -0.302174 -1.36792 14.0687
RightToes  -9.31324e-010 0 -3.6325e-017
Spine  9.09868 -0.288979 -5.28351
Spine1  3.94999 -0.99019 1.94112
HEad  -14.806 -19.0621 -0.646936
LeftShoulder1  -0.266132 4.20991 -31.5615
LeftArm  -4.92245 7.41806 -36.0077
LeftForeArm  24.9393 -30.9237 -5.36603
LeftHand  -0.0276036 5.71671 1.19327
RightShoulder  -0.886848 -5.92677 30.0037
RightArm  20.3273 -5.26184 46.279
RightForeArm  15.3066 11.5721 7.67139
RightHand  -0.0634211 4.44414 -1.05239
LeftUpLeg  -2.71755 5.09674 -4.79925
LeftLeg  22.9398 -0.693558 0.0192965
LeftFoot  -13.0326 0.149082 4.78743
LeftToes  8.61288e-010 -5.99147e-011 2.1039e-011
751
root  -61.0588 39.6643 8.13723 -174.442 -69.9028 167.549
RightUpLeg  -15.562 -14.8105 -4.3734
RightLeg  11.3297 -0.671432 1.3977
RightFoot  -1.59176 -0.982972 11.3604
RightToes  -9.31324e-010 0 -3.6325e-017
Spine  9.05087 -0.23367 -3.43749
Spine1  4.01883 -0.490662 0.176481
HEad  -20.1239 -15.5085 1.47213
LeftShoulder1  -0.27403 4.23325 -31.4293
LeftArm  -5.68921 8.57557 -36.1689
LeftForeArm  24.4765 -31.1715 -5.4512
LeftHand  -0.0285579 5.20207 2.36788
RightShoulder  -0.898385 -5.94422 30.2177
RightArm  18.1108 -5.59114 45.8322
RightForeArm  20.7685 8.08572 8.2662
RightHand  -0.0291857 2.75988 -0.565329
LeftUpLeg  -2.23012 5.65898 -3.85106
LeftLeg  20.9863 -0.272453 0.223607
LeftFoot  -11.0456 0.0549615 4.54852
LeftToes  8.61288e-010 -5.99147e-011 2.1039e-011
752
root  -60.3844 39.8529 8.08939 -176.485 -69.5045 169.368
RightUpLeg  -14.9605 -17.4367 -4.50544
RightLeg  17.999 -0.511737 -0.534799
RightFoot  -3.04096 -0.685783 9.15158
RightToes  -9.31324e-010 0 -3.6325e-017
Spine  8.8076 -0.135886 -3.68308
Spine1  3.89607 -0.652812 1.07352
HEad  -18.1265 -15.5427 0.532013
LeftShoulder1  -0.33699 4.39768 -31.576
LeftArm  -4.85516 9.68621 -36.2862
LeftForeArm  23.8141 -30.6751 -5.36997
LeftHand  -0.027349 5.57087 2.35192
RightShoulder  -0.933199 -6.03386 30.294
RightArm  16.5062 -6.17499 44.7804
RightForeArm  23.8352 5.90525 7.99409
RightHand  0.0776611 1.90011 1.0609
LeftUpLeg  -1.8894 6.24127 -2.65354
LeftLeg  18.8969 -0.633622 -0.0126446
LeftFoot  -9.15949 -0.0238074 4.15525
LeftToes  8.61288e-010 -5.99147e-011 2.1039e-011
753
root  -59.701 40.0306 8.00771 -177.129 -69.073 170.121
RightUpLeg  -13.8702 -15.9965 -6.61565
RightLeg  24.1681 -2.8758 -1.61841
RightFoot  -4.06267 -0.470437 6.95674
RightToes  -9.31324e-010 0 -3.6325e-017
Spine  8.48278 -0.100023 -3.95598
Spine1  3.2899 -0.778459 1.50008
HEad  -17.0118 -15.6997 0.279954
LeftShoulder1  -0.380437 4.50834 -31.7033
LeftArm  -2.717 10.9465 -35.9824
LeftForeArm  23.2805 -29.6974 -5.16957
LeftHand  -0.0305459 5.83995 -0.0156736
RightShoulder  -0.989459 -6.17092 30.5277
RightArm  15.459 -7.41796 43.3035
RightForeArm  23.2834 5.53213 7.47962
RightHand  0.0365136 2.57333 0.325166
LeftUpLeg  -1.83162 6.48979 -1.91889
LeftLeg  16.6242 -0.282273 -0.107384
LeftFoot  -7.03272 -0.106447 3.9316
LeftToes  8.61288e-010 -5.99147e-011 2.1039e-011
754
root  -59.0139 40.1289 7.90131 -177.532 -68.4588 170.54
RightUpLeg  -12.1402 -14.1169 -8.92154
RightLeg  29.0506 -3.57649 -2.37111
RightFoot  -4.79421 -0.326439 5.14475
RightToes  -9.31324e-010 0 -3.6325e-017
Spine  7.92917 0.00985954 -4.14047
Spine1  3.08641 -0.807603 1.83488
HEad  -15.9375 -15.5199 0.110299
LeftShoulder1  -0.449595 4.67661 -32.1899
LeftArm  -0.441075 12.1503 -35.6864
LeftForeArm  22.0975 -28.4631 -4.94883
LeftHand  -0.0298797 5.70383 0.272317
RightShoulder  -0.960504 -6.11022 30.253
RightArm  13.3676 -9.02115 42.3479
RightForeArm  21.8717 5.8994 6.54356
RightHand  0.0439041 2.28032 0.479268
LeftUpLeg  -1.92718 6.61376 -1.20337
LeftLeg  14.8656 -0.119562 -0.273581
LeftFoot  -5.25173 -0.17272 3.85169
LeftToes  8.61288e-010 -5.99147e-011 2.1039e-011
755
root  -58.296 40.1414 7.76472 -177.686 -67.9543 170.899
RightUpLeg  -10.1656 -11.3269 -11.0645
RightLeg  32.5506 -3.60993 -2.71567
RightFoot  -5.50508 -0.270545 4.57441
RightToes  -9.31324e-010 0 -3.6325e-017
Spine  7.04208 -0.0252672 -3.37187
Spine1  3.33284 -0.648394 0.793649
HEad  -15.2885 -15.2459 0.746719
LeftShoulder1  -0.422925 4.61922 -31.7386
LeftArm  1.20669 13.4397 -36.1998
LeftForeArm  21.9323 -27.1986 -4.67538
LeftHand  -0.0291873 5.8776 0.398884
RightShoulder  -1.08476 -6.39138 31.0205
RightArm  12.5979 -9.63933 40.8444
RightForeArm  18.5842 6.72153 6.14265
RightHand  0.0297834 3.03208 0.180793
LeftUpLeg  -2.6733 6.56001 -0.556621
LeftLeg  13.9183 0.176862 -0.220272
LeftFoot  -3.94014 -0.181427 3.17547
LeftToes  8.61288e-010 -5.99147e-011 2.1039e-011
756
root  -57.5098 40.092 7.61021 -177.148 -67.5566 170.47
RightUpLeg  -7.97565 -8.54819 -13.3199
RightLeg  34.9787 -3.21748 -2.66834
RightFoot  -6.04202 -0.224407 3.94961
RightToes  -9.31324e-010 0 -3.6325e-017
Spine  6.62168 0.0893981 -4.45997
Spine1  3.28623 -0.922828 2.32394
HEad  -15.2405 -15.1929 0.542404
LeftShoulder1  -0.546983 4.92388 -32.3832
LeftArm  4.48657 13.7785 -35.9887
LeftForeArm  20.0521 -25.0631 -4.29881
LeftHand  -0.0363236 5.68417 -1.07437
RightShoulder  -1.01141 -6.24462 30.3468
RightArm  12.3908 -10.0592 40.2839
RightForeArm  16.4442 7.95414 6.01235
RightHand  0.0133749 3.62472 -0.0823852
LeftUpLeg  -3.84147 6.43346 -0.223071
LeftLeg  13.7177 0.495263 -0.0592282
LeftFoot  -2.78979 -0.161098 2.37887
LeftToes  8.61288e-010 -5.99147e-011 2.1039e-011
757
root  -56.6474 39.9699 7.41411 -176.968 -66.9082 170.302
RightUpLeg  -5.67977 -5.26663 -15.0135
RightLeg  36.5168 -2.62751 -2.34258
RightFoot  -6.72952 -0.175851 3.24274
RightToes  -9.31324e-010 0 -3.6325e-017
Spine  6.79465 0.270314 -4.14038
Spine1  2.84914 -0.683244 2.00358
HEad  -15.5457 -15.1458 0.782989
LeftShoulder1  -0.520445 4.85765 -32.2931
LeftArm  4.60738 15.0518 -36.5583
LeftForeArm  20.5843 -23.81 -4.05738
LeftHand  -0.0727501 6.74116 -2.75999
RightShoulder  -1.02761 -6.28717 30.3658
RightArm  12.2679 -9.82777 40.1414
RightForeArm  15.6488 8.86428 5.91249
RightHand  -0.0492643 4.30269 -0.856487
LeftUpLeg  -5.41008 6.57368 0.349685
LeftLeg  14.409 0.772103 0.127112
LeftFoot  -1.85813 -0.135553 1.76532
LeftToes  8.61288e-010 -5.99147e-011 2.1039e-011
758
root  -55.7136 39.7432 7.19092 -176.445 -66.0615 169.366
RightUpLeg  -3.02044 -1.56937 -16.6017
RightLeg  37.1168 -1.06139 -1.1221
RightFoot  -7.13593 -0.172787 3.31929
RightToes  -9.31324e-010 0 -3.6325e-017
Spine  7.20313 0.416539 -3.535
Spine1  2.99685 -0.353026 0.936042
HEad  -16.4158 -14.7822 0.902787
LeftShoulder1  -0.564494 4.95637 -32.7139
LeftArm  5.33024 15.3134 -36.5161
LeftForeArm  20.5493 -21.9827 -4.02335
LeftHand  -0.140795 8.29758 -3.63771
RightShoulder  -0.982933 -6.18212 30.1353
RightArm  12.5951 -8.67275 40.825
RightForeArm  15.1657 9.26672 6.04166
RightHand  -0.10249 5.05363 -1.43887
LeftUpLeg  -7.01954 6.95024 0.762643
LeftLeg  15.8171 0.931552 0.27341
LeftFoot  -1.23125 -0.0990001 1.20439
LeftToes  8.61288e-010 -5.99147e-011 2.1039e-011
759
root  -54.6889 39.4778 6.94662 -175.823 -64.8833 168.438
RightUpLeg  -0.610673 2.84306 -17.4906
RightLeg  36.7998 1.28121 0.765486
RightFoot  -7.13041 -0.205969 4.36608
RightToes  -9.31324e-010 0 -3.6325e-017
Spine  7.57709 0.6679 -2.8606
Spine1  3.35042 0.146195 -0.397717
HEad  -17.5045 -14.4031 0.762164
LeftShoulder1  -0.563915 4.95135 -32.8147
LeftArm  4.60453 15.6106 -36.6692
LeftForeArm  21.4199 -20.5394 -4.39398
LeftHand  -0.12394 7.84377 -3.41913
RightShoulder  -0.96019 -6.12452 30.067
RightArm  12.4425 -6.84046 41.9984
RightForeArm  16.5754 9.50455 6.01252
RightHand  -0.0293966 3.52452 -0.648298
LeftUpLeg  -8.81445 7.03175 1.172
LeftLeg  17.1837 1.69604 0.700059
LeftFoot  -0.431168 -0.0275558 0.317413
LeftToes  8.61288e-010 -5.99147e-011 2.1039e-011
760
root  -53.5437 39.1613 6.65074 -174.948 -63.7053 167.622
RightUpLeg  1.64112 7.84859 -17.4965
RightLeg  35.4264 3.70255 2.57778
RightFoot  -10.5965 -0.107128 9.56307
RightToes  -9.31324e-010 0 -3.6325e-017
Spine  7.85922 0.958957 -1.90551
Spine1  3.52954 0.763852 -2.00846
HEad  -18.8548 -14.34 0.206059
LeftShoulder1  -0.496388 4.76822 -33.1072
LeftArm  3.15924 15.5755 -36.8072
LeftForeArm  22.0019 -18.576 -5.08609
LeftHand  -0.0663166 6.82443 -2.14893
RightShoulder  -0.98318 -6.18224 30.1419
RightArm  13.0299 -4.61 43.1129
RightForeArm  16.8656 9.94456 6.17709
RightHand  0.005877 4.15153 -0.202689
LeftUpLeg  -11.0817 6.93725 1.77306
LeftLeg  18.4668 2.50888 1.17609
LeftFoot  0.679792 0.0735706 -0.735401
LeftToes  8.61288e-010 -5.99147e-011 2.1039e-011
761
root  -52.3095 38.8288 6.28241 -173.756 -62.6668 166.541
RightUpLeg  3.73205 12.5591 -16.972
RightLeg  32.9171 5.59318 3.64412
RightFoot  -16.4882 0.550883 14.9343
RightToes  -9.31324e-010 0 -3.6325e-017
Spine  8.28691 1.12469 -1.7277
Spine1  3.52854 1.11764 -2.92074
HEad  -19.8952 -13.8096 -0.461168
LeftShoulder1  -0.483668 4.73691 -33.0741
LeftArm  1.97422 15.7106 -36.9673
LeftForeArm  23.482 -17.6473 -5.37879
LeftHand  -0.116157 7.69331 -3.48448
RightShoulder  -0.899251 -5.96292 29.9761
RightArm  13.8945 -2.43933 44.7667
RightForeArm  16.2144 10.7031 6.34347
RightHand  -0.0260983 3.9036 -0.587102
LeftUpLeg  -13.1323 6.74067 2.49139
LeftLeg  18.9666 3.18301 1.51243
LeftFoot  2.33324 0.196007 -1.75111
LeftToes  8.61288e-010 -5.99147e-011 2.1039e-011
762
root  -51.0441 38.6255 5.9053 -173.843 -62.33 167.002
RightUpLeg  4.9285 14.5117 -15.4659
RightLeg  29.1017 6.77331 3.85268
RightFoot  -21.5634 1.14282 14.5201
RightToes  -9.31324e-010 0 -3.6325e-017
Spine  8.7355 0.950444 -0.146758
Spine1  3.47816 1.34265 -3.88561
HEad  -21.1534 -13.7814 -1.37653
LeftShoulder1  -0.429581 4.6048 -32.8816
LeftArm  1.30847 15.6823 -37.3086
LeftForeArm  25.0409 -17.5426 -5.32265
LeftHand  -0.13316 7.70112 -4.2357
RightShoulder  -0.886477 -5.92993 29.941
RightArm  14.878 -0.22376 46.3597
RightForeArm  15.3989 12.1178 6.2475
RightHand  -0.0601869 4.3099 -1.00191
LeftUpLeg  -14.522 6.2681 3.99629
LeftLeg  17.7391 3.6741 1.68281
LeftFoot  4.84619 0.330102 -2.52663
LeftToes  8.61288e-010 -5.99147e-011 2.1039e-011
